Unthinkable.2010.1080p.BluRay.DTS.x264.mkv
******************************************

TiTLE......  Unthinkable
YEAR.......  2010
GENRE......  Drama | Thriller
iMDB RATE..  User Rating: 7.3/10 (4,148 votes)
iMDB URL...  http://www.imdb.com/title/tt0914863/
*************************************************

Video
Duration                         : 1h 37mn
Overall bit rate                 : 8 625 Kbps
Width                            : 1 920 pixels
Height                           : 1 032 pixels
Display aspect ratio             : 1.860
Frame rate                       : 23.976 fps
Stream size                      : 4.71 GiB (80%)

Audio
Format                           : DTS
Bit rate                         : 1 510 Kbps
Channel(s)                       : 6 channels
Channel positions                : Front: L C R, Surround: L R, LFE
Sampling rate                    : 48.0 KHz
Stream size                      : 1.02 GiB (18%)
Language                         : English

Subtitles: English, Dutch
*************************


